# xmcd CD database file
#
# Track frame offsets:
#	150
#	19360
#	36620
#	59142
#	85675
#	104530
#	137737
#	165945
#	177105
#	184717
#	201495
#
# Disc length: 2789 seconds
#
# Revision: 2
# Processed by: cddbd v1.5PL3 Copyright (c) Steve Scherf et al.
# Submitted via: CDex 1.50
#
DISCID=9d0ae30b
DTITLE=Yasuaki Shimizu - Berlin
DYEAR=1980
DGENRE=Jazz
TTITLE0=The Bright And Dark Side
TTITLE1=Triple Personality
TTITLE2=Crash The Curse Of Christ
TTITLE3=Iron Wall
TTITLE4=Two Arguments
TTITLE5=Muller's Tragedy
TTITLE6=Zep
TTITLE7=My Foolish Heart
TTITLE8=Borderless Sky Vol.1
TTITLE9=Borderless Sky Vol.2
TTITLE10=Berlin
EXTD=YEAR: 1980
EXTT0=
EXTT1=
EXTT2=
EXTT3=
EXTT4=
EXTT5=
EXTT6=
EXTT7=
EXTT8=
EXTT9=
EXTT10=
PLAYORDER=
